<svg width="16" height="16" viewBox="0 0 16 16" fill="none" xmlns="http://www.w3.org/2000/svg">
<path d="M11.75 6.125C12.7855 6.125 13.625 5.28553 13.625 4.25C13.625 3.21447 12.7855 2.375 11.75 2.375C10.7145 2.375 9.875 3.21447 9.875 4.25C9.875 5.28553 10.7145 6.125 11.75 6.125Z" fill="#38F2AF"/>
<path d="M11.75 12.375H3.625V4.25H8.625C8.625 3.805 8.72062 3.38312 8.88875 3H3.625C2.93562 3 2.375 3.56062 2.375 4.25V12.375C2.375 13.0644 2.93562 13.625 3.625 13.625H11.75C12.4394 13.625 13 13.0644 13 12.375V7.11125C12.6062 7.28496 12.1805 7.37479 11.75 7.375V12.375Z" fill="white"/>
</svg>
