<svg width="13" height="13" viewBox="0 0 13 13" fill="none" xmlns="http://www.w3.org/2000/svg">
<path d="M5.66671 11C6.85002 10.9998 7.99924 10.6036 8.93137 9.87468L11.862 12.8053L12.8047 11.8627L9.87404 8.93201C10.6034 7.99979 10.9998 6.8503 11 5.66668C11 2.72601 8.60737 0.333344 5.66671 0.333344C2.72604 0.333344 0.333374 2.72601 0.333374 5.66668C0.333374 8.60734 2.72604 11 5.66671 11ZM5.66671 1.66668C7.87271 1.66668 9.66671 3.46068 9.66671 5.66668C9.66671 7.87268 7.87271 9.66668 5.66671 9.66668C3.46071 9.66668 1.66671 7.87268 1.66671 5.66668C1.66671 3.46068 3.46071 1.66668 5.66671 1.66668Z" fill="#828282"/>
</svg>
