<svg width="16" height="16" viewBox="0 0 16 16" fill="none" xmlns="http://www.w3.org/2000/svg">
<path d="M10.5 8H11.75V10.5H10.5V8Z" fill="white"/>
<path d="M13 4.875V3.625C13 2.93562 12.4394 2.375 11.75 2.375H3.625C2.59125 2.375 1.75 3.21625 1.75 4.25V11.75C1.75 13.1256 2.87125 13.625 3.625 13.625H13C13.6894 13.625 14.25 13.0644 14.25 12.375V6.125C14.25 5.43563 13.6894 4.875 13 4.875ZM3.625 3.625H11.75V4.875H3.625C3.46408 4.8678 3.31213 4.79881 3.2008 4.68239C3.08947 4.56596 3.02733 4.41109 3.02733 4.25C3.02733 4.08891 3.08947 3.93404 3.2008 3.81761C3.31213 3.70119 3.46408 3.6322 3.625 3.625ZM13 12.375H3.6325C3.34375 12.3675 3 12.2531 3 11.75V6.00937C3.19625 6.08 3.40438 6.125 3.625 6.125H13V12.375Z" fill="white"/>
</svg>
