<svg width="16" height="16" viewBox="0 0 16 16" fill="none" xmlns="http://www.w3.org/2000/svg">
<rect width="16" height="16" fill="black"/>
<rect width="1" height="1" fill="white"/>
<rect width="1" height="1" transform="translate(0 8)" fill="white"/>
<rect width="1" height="1" transform="translate(0 4)" fill="white"/>
<rect width="1" height="1" transform="translate(0 12)" fill="white"/>
<rect width="1" height="1" transform="translate(0 2)" fill="white"/>
<rect width="1" height="1" transform="translate(0 10)" fill="white"/>
<rect width="1" height="1" transform="translate(0 6)" fill="white"/>
<rect width="1" height="1" transform="translate(0 14)" fill="white"/>
<rect width="1" height="1" transform="translate(0 1)" fill="white"/>
<rect width="1" height="1" transform="translate(0 9)" fill="white"/>
<rect width="1" height="1" transform="translate(0 5)" fill="white"/>
<rect width="1" height="1" transform="translate(0 13)" fill="white"/>
<rect width="1" height="1" transform="translate(0 3)" fill="white"/>
<rect width="1" height="1" transform="translate(0 11)" fill="white"/>
<rect width="1" height="1" transform="translate(0 7)" fill="white"/>
<rect width="1" height="1" transform="translate(0 15)" fill="white"/>
<rect width="1" height="1" transform="translate(2)" fill="white"/>
<rect width="1" height="1" transform="translate(2 8)" fill="white"/>
<rect width="1" height="1" transform="translate(2 4)" fill="white"/>
<rect width="1" height="1" transform="translate(2 12)" fill="white"/>
<rect width="1" height="1" transform="translate(2 2)" fill="white"/>
<rect width="1" height="1" transform="translate(2 10)" fill="white"/>
<rect width="1" height="1" transform="translate(2 6)" fill="white"/>
<rect width="1" height="1" transform="translate(2 14)" fill="white"/>
<rect width="1" height="1" transform="translate(3)" fill="white"/>
<rect width="1" height="1" transform="translate(3 8)" fill="white"/>
<rect width="1" height="1" transform="translate(3 4)" fill="#73D13D"/>
<rect width="1" height="1" transform="translate(3 12)" fill="#120338"/>
<rect width="1" height="1" transform="translate(3 2)" fill="white"/>
<rect width="1" height="1" transform="translate(3 10)" fill="#120338"/>
<rect width="1" height="1" transform="translate(3 6)" fill="#FFD8BF"/>
<rect width="1" height="1" transform="translate(3 14)" fill="white"/>
<rect width="1" height="1" transform="translate(4)" fill="white"/>
<rect width="1" height="1" transform="translate(4 8)" fill="#FFD8BF"/>
<rect width="1" height="1" transform="translate(4 4)" fill="#73D13D"/>
<rect width="1" height="1" transform="translate(4 12)" fill="#22075E"/>
<rect width="1" height="1" transform="translate(4 2)" fill="white"/>
<rect width="1" height="1" transform="translate(4 10)" fill="#722ED1"/>
<rect width="1" height="1" transform="translate(4 6)" fill="#FFD8BF"/>
<rect width="1" height="1" transform="translate(4 14)" fill="white"/>
<rect width="1" height="1" transform="translate(5)" fill="white"/>
<rect width="1" height="1" transform="translate(5 8)" fill="#FFD8BF"/>
<rect width="1" height="1" transform="translate(5 4)" fill="#73D13D"/>
<rect width="1" height="1" transform="translate(5 12)" fill="#9254DE"/>
<rect width="1" height="1" transform="translate(5 2)" fill="white"/>
<rect width="1" height="1" transform="translate(5 10)" fill="#22075E"/>
<rect width="1" height="1" transform="translate(5 6)" fill="#FFD8BF"/>
<rect width="1" height="1" transform="translate(5 14)" fill="black"/>
<rect width="1" height="1" transform="translate(6)" fill="white"/>
<rect width="1" height="1" transform="translate(6 8)" fill="#FFD8BF"/>
<rect width="1" height="1" transform="translate(6 4)" fill="#73D13D"/>
<rect width="1" height="1" transform="translate(6 12)" fill="#9254DE"/>
<rect width="1" height="1" transform="translate(6 2)" fill="white"/>
<rect width="1" height="1" transform="translate(6 10)" fill="#722ED1"/>
<rect width="1" height="1" transform="translate(6 6)" fill="black"/>
<rect width="1" height="1" transform="translate(6 14)" fill="#22075E"/>
<rect width="1" height="1" transform="translate(7)" fill="white"/>
<rect width="1" height="1" transform="translate(7 8)" fill="#FFD8BF"/>
<rect width="1" height="1" transform="translate(7 4)" fill="#73D13D"/>
<rect width="1" height="1" transform="translate(7 12)" fill="#FFD8BF"/>
<rect width="1" height="1" transform="translate(7 2)" fill="white"/>
<rect width="1" height="1" transform="translate(7 10)" fill="#FFD8BF"/>
<rect width="1" height="1" transform="translate(7 6)" fill="#FFD8BF"/>
<rect width="1" height="1" transform="translate(7 14)" fill="white"/>
<rect width="1" height="1" transform="translate(8)" fill="white"/>
<rect width="1" height="1" transform="translate(8 8)" fill="#FFD8BF"/>
<rect width="1" height="1" transform="translate(8 4)" fill="#73D13D"/>
<rect width="1" height="1" transform="translate(8 12)" fill="#722ED1"/>
<rect width="1" height="1" transform="translate(8 2)" fill="white"/>
<rect width="1" height="1" transform="translate(8 10)" fill="#FFD8BF"/>
<rect width="1" height="1" transform="translate(8 6)" fill="#FFD8BF"/>
<rect width="1" height="1" transform="translate(8 14)" fill="white"/>
<rect width="1" height="1" transform="translate(9)" fill="white"/>
<rect width="1" height="1" transform="translate(9 8)" fill="#FFD8BF"/>
<rect width="1" height="1" transform="translate(9 4)" fill="#73D13D"/>
<rect width="1" height="1" transform="translate(9 12)" fill="#722ED1"/>
<rect width="1" height="1" transform="translate(9 2)" fill="white"/>
<rect width="1" height="1" transform="translate(9 10)" fill="#FFD8BF"/>
<rect width="1" height="1" transform="translate(9 6)" fill="#FFD8BF"/>
<rect width="1" height="1" transform="translate(9 14)" fill="#22075E"/>
<rect width="1" height="1" transform="translate(10)" fill="white"/>
<rect width="1" height="1" transform="translate(10 8)" fill="#FFD8BF"/>
<rect width="1" height="1" transform="translate(10 4)" fill="#73D13D"/>
<rect width="1" height="1" transform="translate(10 12)" fill="#722ED1"/>
<rect width="1" height="1" transform="translate(10 2)" fill="white"/>
<rect width="1" height="1" transform="translate(10 10)" fill="#722ED1"/>
<rect width="1" height="1" transform="translate(10 6)" fill="black"/>
<rect width="1" height="1" transform="translate(10 14)" fill="#22075E"/>
<rect width="1" height="1" transform="translate(11)" fill="white"/>
<rect width="1" height="1" transform="translate(11 8)" fill="#FFD8BF"/>
<rect width="1" height="1" transform="translate(11 4)" fill="#73D13D"/>
<rect width="1" height="1" transform="translate(11 12)" fill="#9254DE"/>
<rect width="1" height="1" transform="translate(11 2)" fill="white"/>
<rect width="1" height="1" transform="translate(11 10)" fill="#722ED1"/>
<rect width="1" height="1" transform="translate(11 6)" fill="#FFD8BF"/>
<rect width="1" height="1" transform="translate(11 14)" fill="white"/>
<rect width="1" height="1" transform="translate(12)" fill="white"/>
<rect width="1" height="1" transform="translate(12 8)" fill="white"/>
<rect width="1" height="1" transform="translate(12 4)" fill="white"/>
<rect width="1" height="1" transform="translate(12 12)" fill="#FFD8BF"/>
<rect width="1" height="1" transform="translate(12 2)" fill="white"/>
<rect width="1" height="1" transform="translate(12 10)" fill="white"/>
<rect width="1" height="1" transform="translate(12 6)" fill="white"/>
<rect width="1" height="1" transform="translate(12 14)" fill="white"/>
<rect width="1" height="1" transform="translate(13)" fill="white"/>
<rect width="1" height="1" transform="translate(13 8)" fill="white"/>
<rect width="1" height="1" transform="translate(13 4)" fill="white"/>
<rect width="1" height="1" transform="translate(13 12)" fill="white"/>
<rect width="1" height="1" transform="translate(13 2)" fill="white"/>
<rect width="1" height="1" transform="translate(13 10)" fill="white"/>
<rect width="1" height="1" transform="translate(13 6)" fill="white"/>
<rect width="1" height="1" transform="translate(13 14)" fill="white"/>
<rect width="1" height="1" transform="translate(14)" fill="white"/>
<rect width="1" height="1" transform="translate(14 8)" fill="white"/>
<rect width="1" height="1" transform="translate(14 4)" fill="white"/>
<rect width="1" height="1" transform="translate(14 12)" fill="white"/>
<rect width="1" height="1" transform="translate(14 2)" fill="white"/>
<rect width="1" height="1" transform="translate(14 10)" fill="white"/>
<rect width="1" height="1" transform="translate(14 6)" fill="white"/>
<rect width="1" height="1" transform="translate(14 14)" fill="white"/>
<rect width="1" height="1" transform="translate(15)" fill="white"/>
<rect width="1" height="1" transform="translate(15 8)" fill="white"/>
<rect width="1" height="1" transform="translate(15 4)" fill="white"/>
<rect width="1" height="1" transform="translate(15 12)" fill="white"/>
<rect width="1" height="1" transform="translate(15 2)" fill="white"/>
<rect width="1" height="1" transform="translate(15 10)" fill="white"/>
<rect width="1" height="1" transform="translate(15 6)" fill="white"/>
<rect width="1" height="1" transform="translate(15 14)" fill="white"/>
<rect width="1" height="1" transform="translate(2 1)" fill="white"/>
<rect width="1" height="1" transform="translate(2 9)" fill="white"/>
<rect width="1" height="1" transform="translate(2 5)" fill="white"/>
<rect width="1" height="1" transform="translate(2 13)" fill="white"/>
<rect width="1" height="1" transform="translate(2 3)" fill="white"/>
<rect width="1" height="1" transform="translate(2 11)" fill="white"/>
<rect width="1" height="1" transform="translate(2 7)" fill="white"/>
<rect width="1" height="1" transform="translate(2 15)" fill="white"/>
<rect width="1" height="1" transform="translate(3 1)" fill="white"/>
<rect width="1" height="1" transform="translate(3 9)" fill="white"/>
<rect width="1" height="1" transform="translate(3 5)" fill="#73D13D"/>
<rect width="1" height="1" transform="translate(3 13)" fill="white"/>
<rect width="1" height="1" transform="translate(3 3)" fill="white"/>
<rect width="1" height="1" transform="translate(3 11)" fill="#120338"/>
<rect width="1" height="1" transform="translate(3 7)" fill="#FFD8BF"/>
<rect width="1" height="1" transform="translate(3 15)" fill="white"/>
<rect width="1" height="1" transform="translate(4 1)" fill="white"/>
<rect width="1" height="1" transform="translate(4 9)" fill="#120338"/>
<rect width="1" height="1" transform="translate(4 5)" fill="#FFD8BF"/>
<rect width="1" height="1" transform="translate(4 13)" fill="#120338"/>
<rect width="1" height="1" transform="translate(4 3)" fill="#73D13D"/>
<rect width="1" height="1" transform="translate(4 11)" fill="#22075E"/>
<rect width="1" height="1" transform="translate(4 7)" fill="#FFD8BF"/>
<rect width="1" height="1" transform="translate(4 15)" fill="white"/>
<rect width="1" height="1" transform="translate(5 1)" fill="white"/>
<rect width="1" height="1" transform="translate(5 9)" fill="#722ED1"/>
<rect width="1" height="1" transform="translate(5 5)" fill="#FFD8BF"/>
<rect width="1" height="1" transform="translate(5 13)" fill="black"/>
<rect width="1" height="1" transform="translate(5 3)" fill="#73D13D"/>
<rect width="1" height="1" transform="translate(5 11)" fill="#9254DE"/>
<rect width="1" height="1" transform="translate(5 7)" fill="#FFD8BF"/>
<rect width="1" height="1" transform="translate(5 15)" fill="#AD8B00"/>
<rect width="1" height="1" transform="translate(6 1)" fill="white"/>
<rect width="1" height="1" transform="translate(6 9)" fill="#FFD8BF"/>
<rect width="1" height="1" transform="translate(6 5)" fill="#FFD8BF"/>
<rect width="1" height="1" transform="translate(6 13)" fill="#22075E"/>
<rect width="1" height="1" transform="translate(6 3)" fill="white"/>
<rect width="1" height="1" transform="translate(6 11)" fill="#22075E"/>
<rect width="1" height="1" transform="translate(6 7)" fill="black"/>
<rect width="1" height="1" transform="translate(6 15)" fill="#AD8B00"/>
<rect width="1" height="1" transform="translate(7 1)" fill="white"/>
<rect width="1" height="1" transform="translate(7 9)" fill="#FFD8BF"/>
<rect width="1" height="1" transform="translate(7 5)" fill="#FFD8BF"/>
<rect width="1" height="1" transform="translate(7 13)" fill="#22075E"/>
<rect width="1" height="1" transform="translate(7 3)" fill="#73D13D"/>
<rect width="1" height="1" transform="translate(7 11)" fill="#722ED1"/>
<rect width="1" height="1" transform="translate(7 7)" fill="#FFD8BF"/>
<rect width="1" height="1" transform="translate(7 15)" fill="white"/>
<rect width="1" height="1" transform="translate(8 1)" fill="white"/>
<rect width="1" height="1" transform="translate(8 9)" fill="#FFBB96"/>
<rect width="1" height="1" transform="translate(8 5)" fill="#FFD8BF"/>
<rect width="1" height="1" transform="translate(8 13)" fill="#22075E"/>
<rect width="1" height="1" transform="translate(8 3)" fill="#73D13D"/>
<rect width="1" height="1" transform="translate(8 11)" fill="#722ED1"/>
<rect width="1" height="1" transform="translate(8 7)" fill="#FFD8BF"/>
<rect width="1" height="1" transform="translate(8 15)" fill="white"/>
<rect width="1" height="1" transform="translate(9 1)" fill="white"/>
<rect width="1" height="1" transform="translate(9 9)" fill="#FFD8BF"/>
<rect width="1" height="1" transform="translate(9 5)" fill="#FFD8BF"/>
<rect width="1" height="1" transform="translate(9 13)" fill="#22075E"/>
<rect width="1" height="1" transform="translate(9 3)" fill="white"/>
<rect width="1" height="1" transform="translate(9 11)" fill="#722ED1"/>
<rect width="1" height="1" transform="translate(9 7)" fill="#FFD8BF"/>
<rect width="1" height="1" transform="translate(9 15)" fill="#AD8B00"/>
<rect width="1" height="1" transform="translate(10 1)" fill="white"/>
<rect width="1" height="1" transform="translate(10 9)" fill="#FFD8BF"/>
<rect width="1" height="1" transform="translate(10 5)" fill="#FFD8BF"/>
<rect width="1" height="1" transform="translate(10 13)" fill="#22075E"/>
<rect width="1" height="1" transform="translate(10 3)" fill="#73D13D"/>
<rect width="1" height="1" transform="translate(10 11)" fill="#722ED1"/>
<rect width="1" height="1" transform="translate(10 7)" fill="black"/>
<rect width="1" height="1" transform="translate(10 15)" fill="#AD8B00"/>
<rect width="1" height="1" transform="translate(11 1)" fill="white"/>
<rect width="1" height="1" transform="translate(11 9)" fill="white"/>
<rect width="1" height="1" transform="translate(11 5)" fill="#FFD8BF"/>
<rect width="1" height="1" transform="translate(11 13)" fill="white"/>
<rect width="1" height="1" transform="translate(11 3)" fill="#73D13D"/>
<rect width="1" height="1" transform="translate(11 11)" fill="#9254DE"/>
<rect width="1" height="1" transform="translate(11 7)" fill="#FFD8BF"/>
<rect width="1" height="1" transform="translate(11 15)" fill="white"/>
<rect width="1" height="1" transform="translate(12 1)" fill="white"/>
<rect width="1" height="1" transform="translate(12 9)" fill="white"/>
<rect width="1" height="1" transform="translate(12 5)" fill="white"/>
<rect width="1" height="1" transform="translate(12 13)" fill="white"/>
<rect width="1" height="1" transform="translate(12 3)" fill="white"/>
<rect width="1" height="1" transform="translate(12 11)" fill="white"/>
<rect width="1" height="1" transform="translate(12 7)" fill="white"/>
<rect width="1" height="1" transform="translate(12 15)" fill="white"/>
<rect width="1" height="1" transform="translate(13 1)" fill="white"/>
<rect width="1" height="1" transform="translate(13 9)" fill="white"/>
<rect width="1" height="1" transform="translate(13 5)" fill="white"/>
<rect width="1" height="1" transform="translate(13 13)" fill="white"/>
<rect width="1" height="1" transform="translate(13 3)" fill="white"/>
<rect width="1" height="1" transform="translate(13 11)" fill="white"/>
<rect width="1" height="1" transform="translate(13 7)" fill="white"/>
<rect width="1" height="1" transform="translate(13 15)" fill="white"/>
<rect width="1" height="1" transform="translate(14 1)" fill="white"/>
<rect width="1" height="1" transform="translate(14 9)" fill="white"/>
<rect width="1" height="1" transform="translate(14 5)" fill="white"/>
<rect width="1" height="1" transform="translate(14 13)" fill="white"/>
<rect width="1" height="1" transform="translate(14 3)" fill="white"/>
<rect width="1" height="1" transform="translate(14 11)" fill="white"/>
<rect width="1" height="1" transform="translate(14 7)" fill="white"/>
<rect width="1" height="1" transform="translate(14 15)" fill="white"/>
<rect width="1" height="1" transform="translate(15 1)" fill="white"/>
<rect width="1" height="1" transform="translate(15 9)" fill="white"/>
<rect width="1" height="1" transform="translate(15 5)" fill="white"/>
<rect width="1" height="1" transform="translate(15 13)" fill="white"/>
<rect width="1" height="1" transform="translate(15 3)" fill="white"/>
<rect width="1" height="1" transform="translate(15 11)" fill="white"/>
<rect width="1" height="1" transform="translate(15 7)" fill="white"/>
<rect width="1" height="1" transform="translate(15 15)" fill="white"/>
<rect width="1" height="1" transform="translate(1)" fill="white"/>
<rect width="1" height="1" transform="translate(1 8)" fill="white"/>
<rect width="1" height="1" transform="translate(1 4)" fill="white"/>
<rect width="1" height="1" transform="translate(1 12)" fill="white"/>
<rect width="1" height="1" transform="translate(1 2)" fill="white"/>
<rect width="1" height="1" transform="translate(1 10)" fill="white"/>
<rect width="1" height="1" transform="translate(1 6)" fill="white"/>
<rect width="1" height="1" transform="translate(1 14)" fill="white"/>
<rect width="1" height="1" transform="translate(1 1)" fill="white"/>
<rect width="1" height="1" transform="translate(1 9)" fill="white"/>
<rect width="1" height="1" transform="translate(1 5)" fill="white"/>
<rect width="1" height="1" transform="translate(1 13)" fill="white"/>
<rect width="1" height="1" transform="translate(1 3)" fill="white"/>
<rect width="1" height="1" transform="translate(1 11)" fill="white"/>
<rect width="1" height="1" transform="translate(1 7)" fill="white"/>
<rect width="1" height="1" transform="translate(1 15)" fill="white"/>
</svg>
